<svg width="20" height="20" fill="none" xmlns="http://www.w3.org/2000/svg"><g id="bi:youtube" clip-path="url(#clip0_76_6)"><path id="Vector" d="M10.064 2.499h.111c1.027.004 6.234.041 7.637.419a2.512 2.512 0 011.77 1.775c.125.475.214 1.104.274 1.752l.013.13.027.325.01.13A40.31 40.31 0 0120 9.477v.093a40.064 40.064 0 01-.103 2.575l-.01.132-.011.13c-.063.714-.155 1.425-.294 1.947a2.509 2.509 0 01-1.768 1.775c-1.45.39-6.962.418-7.725.419H9.91c-.386 0-1.984-.008-3.659-.065l-.212-.008-.109-.005-.214-.008-.213-.01c-1.388-.06-2.71-.16-3.318-.324a2.508 2.508 0 01-1.769-1.774c-.138-.521-.231-1.232-.293-1.947l-.01-.132-.01-.13A39.25 39.25 0 010 9.6v-.153c.003-.27.013-1.198.08-2.223l.009-.129.004-.065.01-.13.027-.325.012-.13c.06-.648.15-1.278.276-1.752a2.509 2.509 0 011.768-1.775c.609-.163 1.93-.263 3.318-.325l.212-.009.215-.007.108-.004.214-.009c1.19-.038 2.38-.06 3.57-.064h.24zM8 6.512v6.022l5.196-3.01L8 6.512z" fill="#333"/></g><defs><clipPath id="clip0_76_6"><path fill="#fff" d="M0 0h20v20H0z"/></clipPath></defs></svg>