<svg width="50" height="50" fill="none" xmlns="http://www.w3.org/2000/svg"><g id="dashicons:awards"><path id="Vector" d="M11.15 12.9l1.35 5.75-1.35 5.725 5.025 3.1L19.25 32.5 25 31.15l5.75 1.35 3.075-5.025 5.025-3.1-1.35-5.725 1.35-5.75-5-3.1-3.1-5.025L25 6.15 19.275 4.8l-3.125 5-5 3.1zm13.875 15.85a10 10 0 010-20c5.5 0 9.975 4.475 9.975 9.975 0 5.55-4.475 10.025-9.975 10.025zm-.05-2.5c-4.15 0-7.475-3.35-7.475-7.5 0-4.125 3.325-7.5 7.475-7.5 4.15 0 7.525 3.375 7.525 7.5 0 4.15-3.375 7.5-7.525 7.5zm9.6 2.75l-3.2 5.6-5.2-1.175L32.5 48l3.5-5.5h6.25L34.575 29zm-19.25.175L18.45 34.8l5.325-1.275L17.5 48 14 42.5H7.75l7.575-13.325z" fill="#C5AD2E"/></g></svg>