<svg width="20" height="20" fill="none" xmlns="http://www.w3.org/2000/svg"><g id="ph:behance-logo-bold"><path id="Vector" d="M12.188 5.938A.938.938 0 0113.124 5h5a.937.937 0 010 1.875h-5a.937.937 0 01-.938-.938zm-1.563 6.406a3.594 3.594 0 01-3.594 3.594H2.188A.938.938 0 011.25 15V5a.937.937 0 01.938-.938h3.906a3.281 3.281 0 012.695 5.149 3.594 3.594 0 011.836 3.133zm-7.5-3.594h2.969a1.406 1.406 0 000-2.813H3.125V8.75zm5.625 3.594a1.727 1.727 0 00-1.719-1.719H3.125v3.438h3.906a1.727 1.727 0 001.719-1.72zm10.938-.469a.938.938 0 01-.938.938h-5.102a2.188 2.188 0 002.93 1.03.938.938 0 11.82 1.688 4.062 4.062 0 112.29-3.656zm-2.086-.938a2.187 2.187 0 00-3.954 0h3.954z" fill="#333"/></g></svg>