<?xml version="1.0" encoding="utf-8"?><svg viewBox="0 0 50 50" xmlns="http://www.w3.org/2000/svg" xmlns:xlink="http://www.w3.org/1999/xlink"><style>:root>svg{display:none}:root>svg:target{display:block}</style><svg viewBox="0 0 50 50" id="icon-awards" xmlns="http://www.w3.org/2000/svg"><path d="m11.15 12.9 1.35 5.75-1.35 5.725 5.025 3.1L19.25 32.5 25 31.15l5.75 1.35 3.075-5.025 5.025-3.1-1.35-5.725 1.35-5.75-5-3.1-3.1-5.025L25 6.15 19.275 4.8l-3.125 5-5 3.1Zm13.875 15.85a10 10 0 0 1 0-20c5.5 0 9.975 4.475 9.975 9.975 0 5.55-4.475 10.025-9.975 10.025Zm-.05-2.5c-4.15 0-7.475-3.35-7.475-7.5 0-4.125 3.325-7.5 7.475-7.5 4.15 0 7.525 3.375 7.525 7.5 0 4.15-3.375 7.5-7.525 7.5Zm9.6 2.75-3.2 5.6-5.2-1.175L32.5 48l3.5-5.5h6.25L34.575 29Zm-19.25.175L18.45 34.8l5.325-1.275L17.5 48 14 42.5H7.75l7.575-13.325Z"/></svg><svg viewBox="0 0 20 20" id="icon-behance" xmlns="http://www.w3.org/2000/svg"><path d="M12.188 5.938A.938.938 0 0 1 13.124 5h5a.937.937 0 0 1 0 1.875h-5a.937.937 0 0 1-.938-.938Zm-1.563 6.406a3.594 3.594 0 0 1-3.594 3.594H2.188A.938.938 0 0 1 1.25 15V5a.937.937 0 0 1 .938-.938h3.906a3.281 3.281 0 0 1 2.695 5.149 3.594 3.594 0 0 1 1.836 3.133Zm-7.5-3.594h2.969a1.406 1.406 0 0 0 0-2.813H3.125V8.75Zm5.625 3.594a1.727 1.727 0 0 0-1.719-1.719H3.125v3.438h3.906a1.727 1.727 0 0 0 1.719-1.72Zm10.938-.469a.938.938 0 0 1-.938.938h-5.102a2.188 2.188 0 0 0 2.93 1.03.938.938 0 1 1 .82 1.688 4.062 4.062 0 1 1 2.29-3.656Zm-2.086-.938a2.187 2.187 0 0 0-3.954 0h3.954Z"/></svg><svg viewBox="0 0 9 18" id="icon-chevron" xmlns="http://www.w3.org/2000/svg"><path d="M1.667.666 10 9l-8.333 8.333-1.48-1.48L7.043 9 .188 2.146 1.667.666Z"/></svg><svg viewBox="0 0 20 20" id="icon-facebook" xmlns="http://www.w3.org/2000/svg"><path d="M11.667 11.25h2.083l.833-3.333h-2.916V6.25c0-.858 0-1.666 1.666-1.666h1.25v-2.8a23.474 23.474 0 0 0-2.38-.117c-2.263 0-3.87 1.38-3.87 3.917v2.333h-2.5v3.333h2.5v7.084h3.334V11.25Z"/></svg><svg viewBox="0 0 20 20" id="icon-instagram" xmlns="http://www.w3.org/2000/svg"><path d="M6.5 1.667h7A4.837 4.837 0 0 1 18.333 6.5v7a4.833 4.833 0 0 1-4.833 4.834h-7A4.837 4.837 0 0 1 1.667 13.5v-7A4.833 4.833 0 0 1 6.5 1.667Zm-.167 1.667a3 3 0 0 0-3 3v7.333c0 1.658 1.342 3 3 3h7.334a3 3 0 0 0 3-3V6.334c0-1.659-1.342-3-3-3H6.333Zm8.042 1.25a1.042 1.042 0 1 1 0 2.083 1.042 1.042 0 0 1 0-2.083ZM10 5.834a4.167 4.167 0 1 1 0 8.333 4.167 4.167 0 0 1 0-8.333ZM10 7.5a2.5 2.5 0 1 0 0 5 2.5 2.5 0 0 0 0-5Z"/></svg><svg viewBox="0 0 20 20" id="icon-phone" xmlns="http://www.w3.org/2000/svg"><path d="M5.517 8.992a12.624 12.624 0 0 0 5.491 5.491l1.834-1.833a.829.829 0 0 1 .85-.2 9.506 9.506 0 0 0 2.975.475c.458 0 .833.375.833.833v2.909a.836.836 0 0 1-.833.833C8.842 17.5 2.5 11.158 2.5 3.333c0-.458.375-.833.833-.833H6.25c.458 0 .833.375.833.833 0 1.042.167 2.042.475 2.975a.836.836 0 0 1-.208.85L5.517 8.992Z"/></svg><svg viewBox="0 0 20 20" id="icon-youtube" xmlns="http://www.w3.org/2000/svg"><g clip-path="url(#ga)"><path d="M10.064 2.499h.111c1.027.004 6.234.041 7.637.419a2.512 2.512 0 0 1 1.77 1.775c.125.475.214 1.104.274 1.752l.013.13.027.325.01.13A40.31 40.31 0 0 1 20 9.477v.093a40.064 40.064 0 0 1-.103 2.575l-.01.132-.011.13c-.063.714-.155 1.425-.294 1.947a2.509 2.509 0 0 1-1.768 1.775c-1.45.39-6.962.418-7.725.419H9.91c-.386 0-1.984-.008-3.659-.065l-.212-.008-.109-.005-.214-.008-.213-.01c-1.388-.06-2.71-.16-3.318-.324a2.508 2.508 0 0 1-1.769-1.774c-.138-.521-.231-1.232-.293-1.947l-.01-.132-.01-.13A39.25 39.25 0 0 1 0 9.6v-.153c.003-.27.013-1.198.08-2.223l.009-.129.004-.065.01-.13.027-.325.012-.13c.06-.648.15-1.278.276-1.752a2.509 2.509 0 0 1 1.768-1.775c.609-.163 1.93-.263 3.318-.325l.212-.009.215-.007.108-.004.214-.009c1.19-.038 2.38-.06 3.57-.064h.24V2.5ZM8 6.512v6.022l5.196-3.01L8 6.512Z"/></g><defs><clipPath id="ga"><path d="M0 0h20v20H0z"/></clipPath></defs></svg></svg>