<svg width="86" height="56" viewBox="0 0 86 56" fill="none" xmlns="http://www.w3.org/2000/svg">
<g clip-path="url(#clip0_5_6)">
<rect width="86" height="56" rx="10" fill="#E7E7E7" fill-opacity="0.2"/>
<path d="M37.2051 34.8271L38.1895 35.75C35.0859 39.7832 31.3467 41.7998 26.9717 41.7998C24.1143 41.7998 21.7012 40.877 19.7324 39.0312C18.7754 38.1426 18.0166 37.0078 17.4561 35.627C16.9092 34.2461 16.6357 32.667 16.6357 30.8896C16.6357 29.1123 16.9707 27.2666 17.6406 25.3525C18.3105 23.4248 19.2402 21.6406 20.4297 20C21.6191 18.3594 22.9795 16.8965 24.5107 15.6113C26.042 14.3125 27.7305 13.2939 29.5762 12.5557C31.4219 11.8037 33.3633 11.4277 35.4004 11.4277C37.4375 11.4277 39.2012 12.0771 40.6914 13.376C42.1816 14.6748 42.9268 16.4932 42.9268 18.8311C42.9268 20.2119 42.6055 21.668 41.9629 23.1992C41.334 24.7168 40.5137 26.0977 39.502 27.3418C38.5039 28.5723 37.3213 29.5908 35.9541 30.3975C34.5869 31.2041 33.2266 31.6074 31.873 31.6074C30.5195 31.6074 29.4463 31.1699 28.6533 30.2949C27.8604 29.4199 27.4639 28.4014 27.4639 27.2393C27.4639 25.2432 28.291 23.3154 29.9453 21.4561C31.6133 19.583 33.7529 18.2021 36.3643 17.3135L36.8359 18.4004C35.5234 18.8379 34.2861 19.5693 33.124 20.5947C31.9619 21.6201 31.0527 22.7207 30.3965 23.8965C29.7539 25.0586 29.4326 26.0703 29.4326 26.9316C29.4326 28.7227 30.4307 29.6182 32.4268 29.6182C33.8213 29.6182 35.2158 29.0029 36.6104 27.7725C38.0186 26.542 39.1396 25.0996 39.9736 23.4453C40.8213 21.7773 41.2451 20.1777 41.2451 18.6465C41.2451 17.1016 40.7256 15.8438 39.6865 14.873C38.6475 13.8887 37.2666 13.3965 35.5439 13.3965C33.8213 13.3965 32.0508 13.916 30.2324 14.9551C28.4141 15.9941 26.8008 17.3271 25.3926 18.9541C23.998 20.5811 22.8496 22.4541 21.9473 24.5732C21.0586 26.6787 20.6143 28.75 20.6143 30.7871C20.6143 34.082 21.7148 36.502 23.916 38.0469C25.2012 38.9492 26.6572 39.4004 28.2842 39.4004C29.9248 39.4004 31.5381 39.0039 33.124 38.2109C34.71 37.4043 36.0703 36.2764 37.2051 34.8271ZM56.512 32.6738C54.5022 31.6211 52.5881 31.0947 50.7698 31.0947C48.9514 31.0947 47.4748 31.5664 46.3401 32.5098C45.2053 33.4395 44.6379 34.5332 44.6379 35.791C44.6379 37.0488 45.1916 38.1289 46.2991 39.0312C47.4202 39.9199 48.883 40.3643 50.6877 40.3643C52.5061 40.3643 54.0373 40.1523 55.2815 39.7285C56.5393 39.3047 57.5784 38.7168 58.3987 37.9648C59.2327 37.1992 59.9504 36.3174 60.552 35.3193C61.1672 34.3213 61.6731 33.2275 62.0696 32.0381C62.4797 30.8486 62.8489 29.6387 63.177 28.4082C63.5051 27.1641 63.8401 25.8994 64.1819 24.6143C64.5373 23.3154 64.9133 22.0918 65.3098 20.9434C66.1985 18.3594 67.47 16.3496 69.1243 14.9141C66.4993 14.2441 63.7375 13.9092 60.8391 13.9092C59.1985 13.9092 57.6536 14.3604 56.2043 15.2627C54.7551 16.1514 53.593 17.3545 52.718 18.8721C51.8567 20.3896 51.426 22.0645 51.426 23.8965C51.426 25.7285 51.9387 27.2734 52.9641 28.5312C54.0032 29.7891 55.4797 30.8965 57.3938 31.8535L57.1067 32.8994L56.512 32.6738ZM44.7815 40.3027C43.8108 39.8789 43.0178 39.2773 42.4026 38.498C41.7873 37.7051 41.4797 36.8027 41.4797 35.791C41.4797 34.7656 41.7327 33.8496 42.2385 33.043C42.7444 32.2363 43.4006 31.6006 44.2073 31.1357C45.8889 30.1787 47.7209 29.7002 49.7034 29.7002C50.7288 29.7002 51.6721 29.8438 52.5334 30.1309C50.6741 27.793 49.7444 25.6465 49.7444 23.6914C49.7444 20.8613 50.7356 18.3799 52.718 16.2471C54.6457 14.1826 56.9221 12.7676 59.5471 12.002C60.8733 11.6191 62.1721 11.4277 63.4436 11.4277C64.7151 11.4277 66.5539 11.7012 68.9602 12.248C71.3664 12.7949 72.9592 13.0684 73.7385 13.0684C74.5178 13.0684 75.0647 12.9795 75.3791 12.8018C75.803 12.5693 76.302 12.125 76.8762 11.4688H78.4348C78.2571 12.207 77.8948 12.8428 77.3479 13.376C76.801 13.9092 76.1721 14.2988 75.4612 14.5449C74.135 14.9961 72.8772 15.2217 71.6877 15.2217C69.9788 15.2217 68.8303 17.2725 68.2424 21.374C68.092 22.4541 67.9416 23.9922 67.7913 25.9883C67.6409 27.9844 67.2922 29.7549 66.7454 31.2998C66.2121 32.8447 65.5217 34.1641 64.6741 35.2578C63.8401 36.3516 62.8899 37.3154 61.8235 38.1494C60.7707 38.9697 59.6223 39.626 58.3782 40.1182C55.9582 41.0752 53.3948 41.5537 50.6877 41.5537C48.637 41.5537 46.6682 41.1367 44.7815 40.3027Z" fill="black"/>
</g>
<defs>
<clipPath id="clip0_5_6">
<rect width="86" height="56" rx="10" fill="white"/>
</clipPath>
</defs>
</svg>
