<svg width="20" height="20" viewBox="0 0 20 20" fill="none" xmlns="http://www.w3.org/2000/svg">
<g id="mdi:instagram">
<path id="Vector" d="M6.49996 1.66699H13.5C16.1666 1.66699 18.3333 3.83366 18.3333 6.50033V13.5003C18.3333 14.7822 17.8241 16.0116 16.9176 16.918C16.0112 17.8244 14.7818 18.3337 13.5 18.3337H6.49996C3.83329 18.3337 1.66663 16.167 1.66663 13.5003V6.50033C1.66663 5.21845 2.17585 3.98907 3.08228 3.08264C3.9887 2.17622 5.21808 1.66699 6.49996 1.66699ZM6.33329 3.33366C5.53764 3.33366 4.77458 3.64973 4.21197 4.21234C3.64936 4.77495 3.33329 5.53801 3.33329 6.33366V13.667C3.33329 15.3253 4.67496 16.667 6.33329 16.667H13.6666C14.4623 16.667 15.2253 16.3509 15.7879 15.7883C16.3506 15.2257 16.6666 14.4626 16.6666 13.667V6.33366C16.6666 4.67533 15.325 3.33366 13.6666 3.33366H6.33329ZM14.375 4.58366C14.6512 4.58366 14.9162 4.69341 15.1115 4.88876C15.3069 5.08411 15.4166 5.34906 15.4166 5.62533C15.4166 5.90159 15.3069 6.16654 15.1115 6.3619C14.9162 6.55725 14.6512 6.66699 14.375 6.66699C14.0987 6.66699 13.8337 6.55725 13.6384 6.3619C13.443 6.16654 13.3333 5.90159 13.3333 5.62533C13.3333 5.34906 13.443 5.08411 13.6384 4.88876C13.8337 4.69341 14.0987 4.58366 14.375 4.58366ZM9.99996 5.83366C11.105 5.83366 12.1648 6.27265 12.9462 7.05405C13.7276 7.83545 14.1666 8.89526 14.1666 10.0003C14.1666 11.1054 13.7276 12.1652 12.9462 12.9466C12.1648 13.728 11.105 14.167 9.99996 14.167C8.89489 14.167 7.83508 13.728 7.05368 12.9466C6.27228 12.1652 5.83329 11.1054 5.83329 10.0003C5.83329 8.89526 6.27228 7.83545 7.05368 7.05405C7.83508 6.27265 8.89489 5.83366 9.99996 5.83366ZM9.99996 7.50033C9.33692 7.50033 8.70103 7.76372 8.23219 8.23256C7.76335 8.7014 7.49996 9.33728 7.49996 10.0003C7.49996 10.6634 7.76335 11.2993 8.23219 11.7681C8.70103 12.2369 9.33692 12.5003 9.99996 12.5003C10.663 12.5003 11.2989 12.2369 11.7677 11.7681C12.2366 11.2993 12.5 10.6634 12.5 10.0003C12.5 9.33728 12.2366 8.7014 11.7677 8.23256C11.2989 7.76372 10.663 7.50033 9.99996 7.50033Z" fill="#333333"/>
</g>
</svg>
