<svg width="20" height="20" viewBox="0 0 20 20" fill="none" xmlns="http://www.w3.org/2000/svg">
<g id="ph:behance-logo-bold">
<path id="Vector" d="M12.1875 5.9375C12.1875 5.68886 12.2863 5.4504 12.4621 5.27459C12.6379 5.09877 12.8764 5 13.125 5H18.125C18.3736 5 18.6121 5.09877 18.7879 5.27459C18.9637 5.4504 19.0625 5.68886 19.0625 5.9375C19.0625 6.18614 18.9637 6.4246 18.7879 6.60041C18.6121 6.77623 18.3736 6.875 18.125 6.875H13.125C12.8764 6.875 12.6379 6.77623 12.4621 6.60041C12.2863 6.4246 12.1875 6.18614 12.1875 5.9375ZM10.625 12.3438C10.625 12.8157 10.532 13.283 10.3514 13.719C10.1708 14.155 9.90613 14.5512 9.57241 14.8849C9.2387 15.2186 8.84253 15.4833 8.40652 15.6639C7.9705 15.8445 7.50319 15.9375 7.03125 15.9375H2.1875C1.93886 15.9375 1.7004 15.8387 1.52459 15.6629C1.34877 15.4871 1.25 15.2486 1.25 15V5C1.25 4.75136 1.34877 4.5129 1.52459 4.33709C1.7004 4.16127 1.93886 4.0625 2.1875 4.0625H6.09375C6.69224 4.06302 7.27919 4.22723 7.79107 4.53734C8.30296 4.84745 8.72027 5.29166 8.99786 5.82188C9.27544 6.35211 9.40272 6.94816 9.36592 7.54552C9.32911 8.14288 9.12963 8.7188 8.78906 9.21094C9.34568 9.52309 9.80914 9.97782 10.1318 10.5284C10.4545 11.079 10.6247 11.7056 10.625 12.3438ZM3.125 8.75H6.09375C6.46671 8.75 6.8244 8.60184 7.08812 8.33812C7.35184 8.0744 7.5 7.71671 7.5 7.34375C7.5 6.97079 7.35184 6.6131 7.08812 6.34938C6.8244 6.08566 6.46671 5.9375 6.09375 5.9375H3.125V8.75ZM8.75 12.3438C8.74794 11.8885 8.5662 11.4526 8.24432 11.1307C7.92244 10.8088 7.48646 10.6271 7.03125 10.625H3.125V14.0625H7.03125C7.48646 14.0604 7.92244 13.8787 8.24432 13.5568C8.5662 13.2349 8.74794 12.799 8.75 12.3438ZM19.6875 11.875C19.6875 12.1236 19.5887 12.3621 19.4129 12.5379C19.2371 12.7137 18.9986 12.8125 18.75 12.8125H13.6484C13.8259 13.1865 14.1058 13.5025 14.4557 13.7238C14.8055 13.9451 15.211 14.0625 15.625 14.0625C15.9555 14.0653 16.2819 13.9903 16.5781 13.8438C16.8019 13.735 17.0597 13.7195 17.2949 13.8009C17.53 13.8822 17.7233 14.0536 17.832 14.2773C17.9408 14.5011 17.9562 14.7589 17.8749 14.9941C17.7936 15.2292 17.6222 15.4225 17.3984 15.5312C16.6051 15.9162 15.7081 16.0325 14.8429 15.8628C13.9776 15.693 13.1911 15.2464 12.602 14.5902C12.013 13.9341 11.6534 13.1042 11.5776 12.2257C11.5017 11.3472 11.7138 10.4679 12.1817 9.72051C12.6496 8.97315 13.3479 8.3983 14.1713 8.08278C14.9946 7.76726 15.8983 7.72818 16.7458 7.97146C17.5934 8.21473 18.3387 8.72715 18.8694 9.43134C19.4001 10.1355 19.6872 10.9932 19.6875 11.875ZM17.6016 10.9375C17.4242 10.5634 17.1443 10.2473 16.7944 10.026C16.4445 9.8047 16.039 9.68721 15.625 9.68721C15.211 9.68721 14.8055 9.8047 14.4556 10.026C14.1057 10.2473 13.8258 10.5634 13.6484 10.9375H17.6016Z" fill="#333333"/>
</g>
</svg>
